<svg xmlns="http://www.w3.org/2000/svg" viewBox="0 0 660 240" role="img" aria-label="ボールペン画: handson-09-csharp-websocket-server">
<rect width="660" height="240" fill="#fbf8f2" />
<g stroke="#1a4f8b" stroke-width="1.1" fill="none" stroke-linecap="round" stroke-linejoin="round">
<path d="M 124.0 82.0 L 123.8 153.9 M 124.0 154.0 L 121.0 148.0 M 124.0 154.0 L 127.0 148.2" />
<path d="M 156.0 154.0 L 155.9 82.2 M 156.0 82.0 L 159.0 87.8 M 156.0 82.0 L 153.2 88.2" />
<path d="M 102.0 168.0 L 132.4 167.9 L 132.4 196.0 L 102.3 195.8 L 102.0 167.6 Z" />
<path d="M 148.0 168.0 L 177.9 167.5 L 178.0 195.5 L 148.4 196.1 L 147.6 168.1 Z" />
<path d="M 102.0 176.0 L 131.7 175.9" />
<path d="M 148.0 176.0 L 178.0 176.1" />
<path d="M 102.0 188.0 L 132.0 188.0" />
<path d="M 148.0 188.0 L 178.0 187.7" />
<path d="M 224.0 114.0 L 223.5 118.2 L 222.8 122.4 L 220.4 125.7 L 218.7 128.9 L 215.5 132.7 L 212.4 134.9 L 208.5 136.6 L 204.5 137.7 L 200.1 138.5 L 195.8 137.5 L 192.1 136.9 L 188.4 134.8 L 184.1 132.1 L 181.2 129.7 L 178.8 126.2 L 177.2 122.6 L 176.5 118.4 L 175.8 114.3 L 176.1 109.8 L 177.0 106.0 L 179.1 101.8 L 181.2 99.0 L 184.2 96.0 L 188.3 93.0 L 191.8 91.3 L 196.0 90.7 L 199.6 90.4 L 204.6 90.6 L 208.2 91.0 L 212.4 93.5 L 215.8 95.8 L 218.9 98.7 L 221.0 101.6 L 222.5 106.0 L 223.2 109.9 Z" />
<path d="M 216.0 114.0 L 216.0 117.8 L 214.8 120.7 L 212.8 123.7 L 210.7 126.2 L 208.4 127.5 L 204.9 129.6 L 201.3 130.2 L 198.3 130.3 L 195.4 129.3 L 191.7 128.2 L 189.6 126.2 L 187.2 123.7 L 185.0 120.6 L 184.1 117.1 L 184.0 114.0 L 184.3 110.4 L 185.8 107.6 L 186.9 104.3 L 189.1 101.7 L 192.3 100.3 L 195.4 98.6 L 198.8 98.5 L 201.4 98.4 L 205.0 98.9 L 207.7 99.8 L 210.9 101.9 L 213.4 104.7 L 214.8 107.6 L 215.5 110.3 Z" />
<path d="M 200.0 90.0 L 199.8 79.7" />
<path d="M 200.0 138.0 L 200.2 147.8" />
</g>
</svg>